<svg fill="#000000" xmlns="http://www.w3.org/2000/svg"  viewBox="0 0 50 50" width="50px" height="50px"><path d="M 14.529297 4 C 10.942497 4 8.2058513 5.0534259 6.4550781 7.1035156 C 4.704305 9.1536053 4 12.041439 4 15.525391 L 4 35.525391 C 4 41.557868 8.4048675 46 14.529297 46 L 24 46 L 24 4 L 14.529297 4 z M 35.474609 4 L 25.974609 4.015625 L 25.974609 46 L 35.474609 46 C 41.613609 46 46 41.565 46 35.5 L 46 15.550781 C 46 7.9587812 42.445609 4 35.474609 4 z M 14.529297 6 L 22 6 L 22 44 L 14.529297 44 C 9.323726 44 6 40.632913 6 35.525391 L 6 15.525391 C 6 12.313342 6.6623357 9.9412541 7.9765625 8.4023438 C 9.2907893 6.8634333 11.318097 6 14.529297 6 z M 14.5 10 C 13.083334 10 11.893559 10.567256 11.126953 11.429688 C 10.360347 12.292118 10 13.402778 10 14.5 C 10 15.597222 10.360347 16.707881 11.126953 17.570312 C 11.893559 18.432744 13.083334 19 14.5 19 C 15.916666 19 17.106441 18.432744 17.873047 17.570312 C 18.639653 16.707881 19 15.597222 19 14.5 C 19 13.402778 18.639653 12.292119 17.873047 11.429688 C 17.106441 10.567255 15.916666 10 14.5 10 z M 14.5 12 C 15.416666 12 15.976893 12.307744 16.376953 12.757812 C 16.777013 13.207882 17 13.847222 17 14.5 C 17 15.152778 16.777013 15.792119 16.376953 16.242188 C 15.976893 16.692256 15.416666 17 14.5 17 C 13.583334 17 13.023107 16.692256 12.623047 16.242188 C 12.222987 15.792119 12 15.152778 12 14.5 C 12 13.847222 12.222987 13.207881 12.623047 12.757812 C 13.023107 12.307745 13.583334 12 14.5 12 z M 36 24 C 38.206 24 40 25.794 40 28 C 40 30.206 38.206 32 36 32 C 33.794 32 32 30.206 32 28 C 32 25.794 33.794 24 36 24 z"/></svg>